<svg xmlns="http://www.w3.org/2000/svg" viewBox="0 0 64 64" fill="none">
  <defs>
    <linearGradient id="bg" x1="8" y1="8" x2="56" y2="56" gradientUnits="userSpaceOnUse">
      <stop stop-color="#1E293B"/>
      <stop offset="1" stop-color="#0F172A"/>
    </linearGradient>
    <linearGradient id="petal" x1="32" y1="12" x2="32" y2="52" gradientUnits="userSpaceOnUse">
      <stop stop-color="#4ADE80"/>
      <stop offset="1" stop-color="#22C55E"/>
    </linearGradient>
    <radialGradient id="core" cx="0" cy="0" r="1" gradientUnits="userSpaceOnUse" gradientTransform="translate(32 32) rotate(90) scale(8)">
      <stop stop-color="#FDE68A"/>
      <stop offset="1" stop-color="#FACC15"/>
    </radialGradient>
  </defs>

  <rect x="2" y="2" width="60" height="60" rx="16" fill="url(#bg)"/>

  <g fill="url(#petal)">
    <ellipse cx="32" cy="14.5" rx="6.2" ry="9.2"/>
    <ellipse cx="32" cy="49.5" rx="6.2" ry="9.2"/>
    <ellipse cx="14.5" cy="32" rx="9.2" ry="6.2"/>
    <ellipse cx="49.5" cy="32" rx="9.2" ry="6.2"/>
    <ellipse cx="19.8" cy="19.8" rx="7.2" ry="5.2" transform="rotate(-45 19.8 19.8)"/>
    <ellipse cx="44.2" cy="44.2" rx="7.2" ry="5.2" transform="rotate(-45 44.2 44.2)"/>
    <ellipse cx="44.2" cy="19.8" rx="7.2" ry="5.2" transform="rotate(45 44.2 19.8)"/>
    <ellipse cx="19.8" cy="44.2" rx="7.2" ry="5.2" transform="rotate(45 19.8 44.2)"/>
  </g>

  <circle cx="32" cy="32" r="7.5" fill="url(#core)"/>
  <circle cx="32" cy="32" r="1.8" fill="#F59E0B"/>
</svg>
